<svg xmlns="http://www.w3.org/2000/svg" viewBox="0 0 49.94 11.36"><defs><style>.cls-1{fill:#ebebeb;}</style></defs><title>filmist-logo</title><g id="Layer_1" data-name="Layer 1"><path class="cls-1" d="M12.6,2.82v8.4H9.84V2.82Z"/><path class="cls-1" d="M14,2.82H16.8V9h3.3v2.21H14Z"/><path class="cls-1" d="M23.56,7.21v4H20.88V2.82h2.79l1.92,4.05,1.92-4.05H30.3v8.4H27.62v-4L26.44,9.69h-1.7Z"/><path class="cls-1" d="M34.51,2.82v8.4H31.75V2.82Z"/><path class="cls-1" d="M39.92,5.34a.82.82,0,0,0-.8-.61c-.37,0-.58.18-.58.4s.08.5,1.12.82c1.77.53,2.82,1.21,2.82,2.75S41.19,11.36,39,11.36a4.44,4.44,0,0,1-3.38-1.82l1-1.12a3.49,3.49,0,0,0,2.3.9c.52,0,.77-.19.77-.47s-.24-.5-1.49-.89c-1.87-.58-2.43-1.49-2.43-2.77,0-1.49,1.12-2.52,3.21-2.52a3.16,3.16,0,0,1,3.48,2.65Z"/><path class="cls-1" d="M44.95,5H42.72V2.82h7.22V5H47.71v6.19H44.95Z"/><polygon class="cls-1" points="2.82 2.82 2.82 5.64 0 5.64 0 8.4 2.82 8.4 2.82 11.21 5.58 11.21 5.58 8.4 8.4 8.4 8.4 5.64 5.58 5.64 5.58 2.82 2.82 2.82"/><rect class="cls-1" x="5.58" width="2.82" height="2.82"/></g></svg>
