<?xml version="1.0" encoding="utf-8"?>
<!-- Generator: Adobe Illustrator 21.0.0, SVG Export Plug-In . SVG Version: 6.00 Build 0)  -->
<svg version="1.1" id="Layer_1" xmlns="http://www.w3.org/2000/svg" xmlns:xlink="http://www.w3.org/1999/xlink" x="0px" y="0px"
	 viewBox="0 0 56.7 11.2" style="enable-background:new 0 0 56.7 11.2;" xml:space="preserve">
<style type="text/css">
	.st0{fill:#090909;}
</style>
<title>filmlist-logo</title>
<path class="st0" d="M12.5,2.8v8.4H9.7V2.8H12.5z"/>
<path class="st0" d="M13.9,2.8h2.8V9H20v2.2h-6.1V2.8z"/>
<path class="st0" d="M23.4,7.2v4h-2.7V2.8h2.8l1.9,4.1l1.9-4.1h2.8v8.4h-2.7v-4l-1.2,2.5h-1.7L23.4,7.2z"/>
<path class="st0" d="M31.6,2.8h2.8V9h3.3v2.2h-6.1V2.8z"/>
<path class="st0" d="M41.2,2.8v8.4h-2.8V2.8H41.2z"/>
<path class="st0" d="M46.6,5.2c-0.1-0.4-0.4-0.6-0.8-0.6c-0.4,0-0.6,0.2-0.6,0.4s0.1,0.5,1.1,0.8c1.8,0.5,2.8,1.2,2.8,2.7
	s-1.3,2.7-3.5,2.7c-1.3-0.1-2.6-0.7-3.4-1.8l1-1.1c0.6,0.6,1.4,0.9,2.3,0.9c0.5,0,0.8-0.2,0.8-0.5s-0.2-0.5-1.5-0.9
	C43,7.2,42.5,6.3,42.5,5c0-1.5,1.1-2.5,3.2-2.5c1.7-0.2,3.2,1,3.5,2.7L46.6,5.2z"/>
<path class="st0" d="M51.7,5h-2.2V2.8h7.2V5h-2.2v6.2h-2.8V5z"/>
<polygon class="st0" points="2.8,2.8 2.8,5.6 0,5.6 0,8.4 2.8,8.4 2.8,11.2 5.6,11.2 5.6,8.4 8.4,8.4 8.4,5.6 5.6,5.6 5.6,2.8 "/>
<rect x="5.6" y="0" class="st0" width="2.8" height="2.8"/>
</svg>
